<mxfile host="app.diagrams.net" agent="Mozilla/5.0 (Macintosh; Intel Mac OS X 10_15_7) AppleWebKit/537.36 (KHTML, like Gecko) Chrome/128.0.0.0 Safari/537.36" version="24.8.4">
  <diagram name="Page-1" id="e7e014a7-5840-1c2e-5031-d8a46d1fe8dd">
    <mxGraphModel dx="2058" dy="572" grid="1" gridSize="10" guides="1" tooltips="1" connect="1" arrows="1" fold="1" page="1" pageScale="1" pageWidth="1169" pageHeight="826" background="none" math="0" shadow="0">
      <root>
        <mxCell id="0" />
        <mxCell id="1" parent="0" />
        <mxCell id="2" value="Application layer" style="swimlane;whiteSpace=wrap" parent="1" vertex="1">
          <mxGeometry x="-140" y="160" width="574.5" height="570" as="geometry" />
        </mxCell>
        <mxCell id="5" value="" style="ellipse;shape=startState;fillColor=#000000;strokeColor=#ff0000;" parent="2" vertex="1">
          <mxGeometry x="100" y="40" width="30" height="30" as="geometry" />
        </mxCell>
        <mxCell id="6" value="" style="edgeStyle=elbowEdgeStyle;elbow=horizontal;verticalAlign=bottom;endArrow=open;endSize=8;strokeColor=#FF0000;endFill=1;rounded=0" parent="2" source="5" edge="1">
          <mxGeometry x="100" y="40" as="geometry">
            <mxPoint x="115.5" y="110" as="targetPoint" />
          </mxGeometry>
        </mxCell>
        <mxCell id="12" value="" style="edgeStyle=elbowEdgeStyle;elbow=horizontal;strokeColor=#FF0000;endArrow=open;endFill=1;rounded=0" parent="2" source="10" edge="1">
          <mxGeometry width="100" height="100" relative="1" as="geometry">
            <mxPoint x="160" y="290" as="sourcePoint" />
            <mxPoint x="60" y="135" as="targetPoint" />
            <Array as="points">
              <mxPoint x="30" y="250" />
            </Array>
          </mxGeometry>
        </mxCell>
        <mxCell id="i3dqCgYtbIHz_UQgsVar-53" value="" style="edgeStyle=orthogonalEdgeStyle;rounded=0;orthogonalLoop=1;jettySize=auto;html=1;" edge="1" parent="2" source="i3dqCgYtbIHz_UQgsVar-41" target="i3dqCgYtbIHz_UQgsVar-44">
          <mxGeometry relative="1" as="geometry" />
        </mxCell>
        <mxCell id="i3dqCgYtbIHz_UQgsVar-41" value="user action&amp;nbsp;" style="html=1;whiteSpace=wrap;" vertex="1" parent="2">
          <mxGeometry x="65.5" y="112" width="110" height="50" as="geometry" />
        </mxCell>
        <mxCell id="i3dqCgYtbIHz_UQgsVar-42" value="DB" style="shape=cylinder3;whiteSpace=wrap;html=1;boundedLbl=1;backgroundOutline=1;size=15;" vertex="1" parent="2">
          <mxGeometry x="470" y="311" width="85" height="98" as="geometry" />
        </mxCell>
        <mxCell id="i3dqCgYtbIHz_UQgsVar-55" value="" style="edgeStyle=orthogonalEdgeStyle;rounded=0;orthogonalLoop=1;jettySize=auto;html=1;" edge="1" parent="2" source="i3dqCgYtbIHz_UQgsVar-44" target="i3dqCgYtbIHz_UQgsVar-54">
          <mxGeometry relative="1" as="geometry" />
        </mxCell>
        <mxCell id="i3dqCgYtbIHz_UQgsVar-44" value="bean start&amp;nbsp;&lt;br&gt;(Transaction)" style="rounded=1;whiteSpace=wrap;html=1;" vertex="1" parent="2">
          <mxGeometry x="61" y="210" width="120" height="60" as="geometry" />
        </mxCell>
        <mxCell id="i3dqCgYtbIHz_UQgsVar-62" style="edgeStyle=orthogonalEdgeStyle;rounded=0;orthogonalLoop=1;jettySize=auto;html=1;exitX=1;exitY=0.25;exitDx=0;exitDy=0;entryX=0;entryY=0.25;entryDx=0;entryDy=0;" edge="1" parent="2" source="i3dqCgYtbIHz_UQgsVar-45" target="i3dqCgYtbIHz_UQgsVar-47">
          <mxGeometry relative="1" as="geometry" />
        </mxCell>
        <mxCell id="i3dqCgYtbIHz_UQgsVar-45" value="Bean End" style="rounded=1;whiteSpace=wrap;html=1;" vertex="1" parent="2">
          <mxGeometry x="61" y="452" width="120" height="60" as="geometry" />
        </mxCell>
        <mxCell id="i3dqCgYtbIHz_UQgsVar-46" value="Event preprocessor" style="shape=process;whiteSpace=wrap;html=1;backgroundOutline=1;" vertex="1" parent="2">
          <mxGeometry x="250" y="210" width="120" height="60" as="geometry" />
        </mxCell>
        <mxCell id="i3dqCgYtbIHz_UQgsVar-63" style="edgeStyle=orthogonalEdgeStyle;rounded=0;orthogonalLoop=1;jettySize=auto;html=1;exitX=0;exitY=0.75;exitDx=0;exitDy=0;entryX=1;entryY=0.75;entryDx=0;entryDy=0;" edge="1" parent="2" source="i3dqCgYtbIHz_UQgsVar-47" target="i3dqCgYtbIHz_UQgsVar-45">
          <mxGeometry relative="1" as="geometry">
            <mxPoint x="190" y="497" as="targetPoint" />
          </mxGeometry>
        </mxCell>
        <mxCell id="i3dqCgYtbIHz_UQgsVar-47" value="Event post processor" style="shape=process;whiteSpace=wrap;html=1;backgroundOutline=1;" vertex="1" parent="2">
          <mxGeometry x="250" y="465" width="120" height="60" as="geometry" />
        </mxCell>
        <mxCell id="i3dqCgYtbIHz_UQgsVar-49" value="" style="endArrow=classic;html=1;rounded=0;exitX=1;exitY=0.25;exitDx=0;exitDy=0;entryX=0;entryY=0.25;entryDx=0;entryDy=0;" edge="1" parent="2" source="i3dqCgYtbIHz_UQgsVar-44" target="i3dqCgYtbIHz_UQgsVar-46">
          <mxGeometry width="50" height="50" relative="1" as="geometry">
            <mxPoint x="190" y="230" as="sourcePoint" />
            <mxPoint x="240" y="230" as="targetPoint" />
          </mxGeometry>
        </mxCell>
        <mxCell id="i3dqCgYtbIHz_UQgsVar-50" value="" style="endArrow=classic;html=1;rounded=0;entryX=1;entryY=0.75;entryDx=0;entryDy=0;exitX=0;exitY=0.75;exitDx=0;exitDy=0;" edge="1" parent="2" source="i3dqCgYtbIHz_UQgsVar-46" target="i3dqCgYtbIHz_UQgsVar-44">
          <mxGeometry width="50" height="50" relative="1" as="geometry">
            <mxPoint x="360" y="330" as="sourcePoint" />
            <mxPoint x="410" y="280" as="targetPoint" />
          </mxGeometry>
        </mxCell>
        <mxCell id="i3dqCgYtbIHz_UQgsVar-58" value="" style="edgeStyle=orthogonalEdgeStyle;rounded=0;orthogonalLoop=1;jettySize=auto;html=1;" edge="1" parent="2" source="i3dqCgYtbIHz_UQgsVar-54">
          <mxGeometry relative="1" as="geometry">
            <mxPoint x="240" y="360" as="targetPoint" />
          </mxGeometry>
        </mxCell>
        <mxCell id="i3dqCgYtbIHz_UQgsVar-61" value="" style="edgeStyle=orthogonalEdgeStyle;rounded=0;orthogonalLoop=1;jettySize=auto;html=1;" edge="1" parent="2" source="i3dqCgYtbIHz_UQgsVar-54" target="i3dqCgYtbIHz_UQgsVar-45">
          <mxGeometry relative="1" as="geometry" />
        </mxCell>
        <mxCell id="i3dqCgYtbIHz_UQgsVar-54" value="business logic" style="whiteSpace=wrap;html=1;rounded=1;" vertex="1" parent="2">
          <mxGeometry x="61" y="330" width="120" height="60" as="geometry" />
        </mxCell>
        <mxCell id="i3dqCgYtbIHz_UQgsVar-60" value="" style="edgeStyle=orthogonalEdgeStyle;rounded=0;orthogonalLoop=1;jettySize=auto;html=1;" edge="1" parent="2" source="i3dqCgYtbIHz_UQgsVar-59" target="i3dqCgYtbIHz_UQgsVar-42">
          <mxGeometry relative="1" as="geometry" />
        </mxCell>
        <mxCell id="i3dqCgYtbIHz_UQgsVar-59" value="Capture change set" style="shape=process;whiteSpace=wrap;html=1;backgroundOutline=1;" vertex="1" parent="2">
          <mxGeometry x="250" y="330" width="130" height="60" as="geometry" />
        </mxCell>
        <mxCell id="3" value="Event Boker" style="swimlane;whiteSpace=wrap" parent="1" vertex="1">
          <mxGeometry x="920" y="640" width="280" height="570" as="geometry" />
        </mxCell>
        <mxCell id="13" value="" style="ellipse;shape=startState;fillColor=#000000;strokeColor=#ff0000;" parent="3" vertex="1">
          <mxGeometry x="100" y="40" width="30" height="30" as="geometry" />
        </mxCell>
        <mxCell id="14" value="" style="edgeStyle=elbowEdgeStyle;elbow=horizontal;verticalAlign=bottom;endArrow=open;endSize=8;strokeColor=#FF0000;endFill=1;rounded=0" parent="3" source="13" target="15" edge="1">
          <mxGeometry x="40" y="20" as="geometry">
            <mxPoint x="55" y="90" as="targetPoint" />
          </mxGeometry>
        </mxCell>
        <mxCell id="i3dqCgYtbIHz_UQgsVar-73" value="" style="edgeStyle=orthogonalEdgeStyle;rounded=0;orthogonalLoop=1;jettySize=auto;html=1;" edge="1" parent="3" source="15" target="18">
          <mxGeometry relative="1" as="geometry" />
        </mxCell>
        <mxCell id="15" value=" Event " style="" parent="3" vertex="1">
          <mxGeometry x="60" y="200" width="110" height="64" as="geometry" />
        </mxCell>
        <mxCell id="16" value="check for previous event&#xa;(Fail safe)" style="" parent="3" vertex="1">
          <mxGeometry x="35" y="110" width="160" height="50" as="geometry" />
        </mxCell>
        <mxCell id="i3dqCgYtbIHz_UQgsVar-75" value="" style="edgeStyle=orthogonalEdgeStyle;rounded=0;orthogonalLoop=1;jettySize=auto;html=1;" edge="1" parent="3" source="18" target="i3dqCgYtbIHz_UQgsVar-74">
          <mxGeometry relative="1" as="geometry" />
        </mxCell>
        <mxCell id="18" value="Event state reconstruction" style="" parent="3" vertex="1">
          <mxGeometry x="20" y="320" width="190" height="65" as="geometry" />
        </mxCell>
        <mxCell id="i3dqCgYtbIHz_UQgsVar-74" value="Event push as DataObject" style="shape=process;whiteSpace=wrap;html=1;backgroundOutline=1;" vertex="1" parent="3">
          <mxGeometry x="55" y="450" width="120" height="60" as="geometry" />
        </mxCell>
        <mxCell id="i3dqCgYtbIHz_UQgsVar-71" style="edgeStyle=orthogonalEdgeStyle;rounded=0;orthogonalLoop=1;jettySize=auto;html=1;entryX=0;entryY=0.5;entryDx=0;entryDy=0;" edge="1" parent="1" source="i3dqCgYtbIHz_UQgsVar-68" target="13">
          <mxGeometry relative="1" as="geometry" />
        </mxCell>
        <mxCell id="i3dqCgYtbIHz_UQgsVar-68" value="" style="sketch=0;aspect=fixed;pointerEvents=1;shadow=0;dashed=0;html=1;strokeColor=none;labelPosition=center;verticalLabelPosition=bottom;verticalAlign=top;align=center;fillColor=#00188D;shape=mxgraph.azure.queue_generic" vertex="1" parent="1">
          <mxGeometry x="585" y="625" width="200" height="60" as="geometry" />
        </mxCell>
        <mxCell id="i3dqCgYtbIHz_UQgsVar-69" style="edgeStyle=orthogonalEdgeStyle;rounded=0;orthogonalLoop=1;jettySize=auto;html=1;entryX=0;entryY=0.5;entryDx=0;entryDy=0;entryPerimeter=0;" edge="1" parent="1" source="i3dqCgYtbIHz_UQgsVar-47" target="i3dqCgYtbIHz_UQgsVar-68">
          <mxGeometry relative="1" as="geometry" />
        </mxCell>
        <mxCell id="i3dqCgYtbIHz_UQgsVar-70" value="Event queue" style="text;html=1;align=center;verticalAlign=middle;whiteSpace=wrap;rounded=0;" vertex="1" parent="1">
          <mxGeometry x="640" y="570" width="60" height="30" as="geometry" />
        </mxCell>
        <mxCell id="i3dqCgYtbIHz_UQgsVar-77" value="Queue" style="sketch=0;outlineConnect=0;fontColor=#232F3E;gradientColor=none;strokeColor=#232F3E;fillColor=#ffffff;dashed=0;verticalLabelPosition=bottom;verticalAlign=top;align=center;html=1;fontSize=12;fontStyle=0;aspect=fixed;shape=mxgraph.aws4.resourceIcon;resIcon=mxgraph.aws4.queue;" vertex="1" parent="1">
          <mxGeometry x="1350" y="1057" width="126" height="126" as="geometry" />
        </mxCell>
        <mxCell id="i3dqCgYtbIHz_UQgsVar-79" style="edgeStyle=orthogonalEdgeStyle;rounded=0;orthogonalLoop=1;jettySize=auto;html=1;exitX=1;exitY=0.5;exitDx=0;exitDy=0;" edge="1" parent="1" source="i3dqCgYtbIHz_UQgsVar-74" target="i3dqCgYtbIHz_UQgsVar-77">
          <mxGeometry relative="1" as="geometry" />
        </mxCell>
        <mxCell id="i3dqCgYtbIHz_UQgsVar-80" value="Workflow" style="html=1;whiteSpace=wrap;" vertex="1" parent="1">
          <mxGeometry x="1090" y="1390" width="110" height="50" as="geometry" />
        </mxCell>
        <mxCell id="i3dqCgYtbIHz_UQgsVar-81" value="Audit trail" style="html=1;whiteSpace=wrap;" vertex="1" parent="1">
          <mxGeometry x="1270" y="1390" width="110" height="50" as="geometry" />
        </mxCell>
        <mxCell id="i3dqCgYtbIHz_UQgsVar-82" value="ONDC" style="html=1;whiteSpace=wrap;" vertex="1" parent="1">
          <mxGeometry x="1470" y="1390" width="110" height="50" as="geometry" />
        </mxCell>
        <mxCell id="i3dqCgYtbIHz_UQgsVar-83" value="Stock" style="html=1;whiteSpace=wrap;" vertex="1" parent="1">
          <mxGeometry x="1630" y="1390" width="110" height="50" as="geometry" />
        </mxCell>
        <mxCell id="i3dqCgYtbIHz_UQgsVar-87" value="" style="endArrow=classic;html=1;rounded=0;exitX=0.5;exitY=0;exitDx=0;exitDy=0;" edge="1" parent="1" source="i3dqCgYtbIHz_UQgsVar-80" target="i3dqCgYtbIHz_UQgsVar-77">
          <mxGeometry width="50" height="50" relative="1" as="geometry">
            <mxPoint x="1240" y="1340" as="sourcePoint" />
            <mxPoint x="1290" y="1280" as="targetPoint" />
          </mxGeometry>
        </mxCell>
        <mxCell id="i3dqCgYtbIHz_UQgsVar-88" value="" style="endArrow=classic;html=1;rounded=0;exitX=0.5;exitY=0;exitDx=0;exitDy=0;" edge="1" parent="1" source="i3dqCgYtbIHz_UQgsVar-81" target="i3dqCgYtbIHz_UQgsVar-77">
          <mxGeometry width="50" height="50" relative="1" as="geometry">
            <mxPoint x="1360" y="1320" as="sourcePoint" />
            <mxPoint x="1410" y="1270" as="targetPoint" />
          </mxGeometry>
        </mxCell>
        <mxCell id="i3dqCgYtbIHz_UQgsVar-89" value="" style="endArrow=classic;html=1;rounded=0;exitX=0.5;exitY=0;exitDx=0;exitDy=0;" edge="1" parent="1" source="i3dqCgYtbIHz_UQgsVar-82" target="i3dqCgYtbIHz_UQgsVar-77">
          <mxGeometry width="50" height="50" relative="1" as="geometry">
            <mxPoint x="1510" y="1300" as="sourcePoint" />
            <mxPoint x="1560" y="1250" as="targetPoint" />
          </mxGeometry>
        </mxCell>
        <mxCell id="i3dqCgYtbIHz_UQgsVar-92" value="" style="endArrow=classic;html=1;rounded=0;exitX=0.5;exitY=0;exitDx=0;exitDy=0;" edge="1" parent="1" source="i3dqCgYtbIHz_UQgsVar-83" target="i3dqCgYtbIHz_UQgsVar-77">
          <mxGeometry width="50" height="50" relative="1" as="geometry">
            <mxPoint x="1650" y="1310" as="sourcePoint" />
            <mxPoint x="1700" y="1260" as="targetPoint" />
          </mxGeometry>
        </mxCell>
        <mxCell id="i3dqCgYtbIHz_UQgsVar-93" value="Event stream&lt;div&gt;&lt;br&gt;&lt;/div&gt;" style="text;html=1;align=center;verticalAlign=middle;whiteSpace=wrap;rounded=0;" vertex="1" parent="1">
          <mxGeometry x="1383" y="1040" width="60" height="30" as="geometry" />
        </mxCell>
      </root>
    </mxGraphModel>
  </diagram>
</mxfile>
